<svg xmlns="http://www.w3.org/2000/svg" viewBox="0 0 128 128"><path fill="#00ACD7" d="M18.8 69.2c-.2-.3-.1-.6.2-.7l1.9-.5c.3-.1.5 0 .7.2l7 9.3c.2.3.1.6-.2.7l-1.9.5c-.3.1-.5 0-.7-.2l-7-9.3zm99.3-2.5c.2-.3.1-.6-.2-.7l-1.9-.5c-.3-.1-.5 0-.7.2L96 84.8c-.2.3-.1.6.2.7l1.9.5c.3.1.5 0 .7-.2l19.3-19.1z"/><path fill="#00ACD7" d="M64 13.5c-27.6 0-50 22.4-50 50s22.4 50 50 50 50-22.4 50-50-22.4-50-50-50zm0 90c-22.1 0-40-17.9-40-40s17.9-40 40-40 40 17.9 40 40-17.9 40-40 40z"/><path fill="#00ACD7" d="M64 25.5c-21 0-38 17-38 38s17 38 38 38 38-17 38-38-17-38-38-38zm-.5 60c-3.1 0-5.5-2.7-5.5-6s2.4-6 5.5-6 5.5 2.7 5.5 6-2.5 6-5.5 6zm18-19.3c-1.8 3.1-5.4 4.8-8.8 4.8H55.3c-3.4 0-7-1.7-8.8-4.8L37 49.2h54l-9.5 17z"/></svg>