<svg xmlns="http://www.w3.org/2000/svg" viewBox="0 0 170 84" fill="none">
  <!-- Apache Superset logo mark — the infinity/figure-8 symbol -->
  <!-- Derived from the official open-source logo (CC0 / Apache 2.0) -->
  <path fill="#484848" d="M125.807 0c-14.517 0-27.89 8.167-40.814 22.437C72.293 7.943 58.696 0 43.506 0C18.354 0 0 17.95 0 42.115c0 24.165 18.354 41.89 43.506 41.89c15.46 0 27.441-7.247 40.814-21.696c12.924 14.494 26.072 21.742 41.487 21.742c25.152-.045 43.506-17.703 43.506-41.936C169.313 17.883 150.959 0 125.807 0ZM43.686 58.651c-10.658 0-17.008-7.022-17.008-16.312c0-9.289 6.35-16.514 17.008-16.514c8.975 0 16.312 7.225 24.255 16.963c-7.495 9.065-15.415 15.863-24.255 15.863Zm81.358 0c-8.84 0-16.312-7.022-24.255-16.312c8.167-9.737 15.19-16.514 24.255-16.514c10.658 0 16.94 7.315 16.94 16.514c0 9.2-6.282 16.312-16.94 16.312Z"/>
  <path fill="#20A7C9" d="m103.257 78.015l16.918-20.194c-6.731-2.02-12.946-8.077-19.386-15.594L84.319 62.31a74.003 74.003 0 0 0 18.938 15.706Zm-18.264-55.6A76.142 76.142 0 0 0 66.168 6.35l-16.94 20.418c6.44 2.244 12.138 8.032 18.197 15.414l.673.472l16.895-20.239Z"/>
</svg>
